<svg id="visual" viewBox="0 0 5000 5000" width="5000" height="5000" xmlns="http://www.w3.org/2000/svg" xmlns:xlink="http://www.w3.org/1999/xlink" version="1.1"><path d="M0 4278L39.7 4220.8C79.3 4163.7 158.7 4049.3 238 3988.7C317.3 3928 396.7 3921 476 3956.8C555.3 3992.7 634.7 4071.3 714 4091.2C793.3 4111 872.7 4072 952 4054.2C1031.3 4036.3 1110.7 4039.7 1190.2 4047.5C1269.7 4055.3 1349.3 4067.7 1428.8 4098.3C1508.3 4129 1587.7 4178 1667 4213.5C1746.3 4249 1825.7 4271 1905 4201.7C1984.3 4132.3 2063.7 3971.7 2143 3938.5C2222.3 3905.3 2301.7 3999.7 2381 3996.3C2460.3 3993 2539.7 3892 2619 3833.7C2698.3 3775.3 2777.7 3759.7 2857 3804.7C2936.3 3849.7 3015.7 3955.3 3095 3953.8C3174.3 3952.3 3253.7 3843.7 3333 3874.8C3412.3 3906 3491.7 4077 3571.2 4086.2C3650.7 4095.3 3730.3 3942.7 3809.8 3920.2C3889.3 3897.7 3968.7 4005.3 4048 4068C4127.3 4130.7 4206.7 4148.3 4286 4130.8C4365.3 4113.3 4444.7 4060.7 4524 4069.7C4603.3 4078.7 4682.7 4149.3 4762 4207C4841.3 4264.7 4920.7 4309.3 4960.3 4331.7L5000 4354L5000 0L4960.3 0C4920.7 0 4841.3 0 4762 0C4682.7 0 4603.3 0 4524 0C4444.7 0 4365.3 0 4286 0C4206.7 0 4127.3 0 4048 0C3968.7 0 3889.3 0 3809.8 0C3730.3 0 3650.7 0 3571.2 0C3491.7 0 3412.3 0 3333 0C3253.7 0 3174.3 0 3095 0C3015.7 0 2936.3 0 2857 0C2777.7 0 2698.3 0 2619 0C2539.7 0 2460.3 0 2381 0C2301.7 0 2222.3 0 2143 0C2063.7 0 1984.3 0 1905 0C1825.7 0 1746.3 0 1667 0C1587.7 0 1508.3 0 1428.8 0C1349.3 0 1269.7 0 1190.2 0C1110.7 0 1031.3 0 952 0C872.7 0 793.3 0 714 0C634.7 0 555.3 0 476 0C396.7 0 317.3 0 238 0C158.7 0 79.3 0 39.7 0L0 0Z" fill="#329547"></path><path d="M0 3821L39.7 3805C79.3 3789 158.7 3757 238 3681C317.3 3605 396.7 3485 476 3472C555.3 3459 634.7 3553 714 3555.5C793.3 3558 872.7 3469 952 3465.3C1031.3 3461.7 1110.7 3543.3 1190.2 3626C1269.7 3708.7 1349.3 3792.3 1428.8 3793.7C1508.3 3795 1587.7 3714 1667 3694.2C1746.3 3674.3 1825.7 3715.7 1905 3737.7C1984.3 3759.7 2063.7 3762.3 2143 3716C2222.3 3669.7 2301.7 3574.3 2381 3574.5C2460.3 3574.7 2539.7 3670.3 2619 3641C2698.3 3611.7 2777.7 3457.3 2857 3423.3C2936.3 3389.3 3015.7 3475.7 3095 3524.5C3174.3 3573.3 3253.7 3584.7 3333 3574.5C3412.3 3564.3 3491.7 3532.7 3571.2 3509.5C3650.7 3486.3 3730.3 3471.7 3809.8 3477.2C3889.3 3482.7 3968.7 3508.3 4048 3560.2C4127.3 3612 4206.7 3690 4286 3671.7C4365.3 3653.3 4444.7 3538.7 4524 3505.5C4603.3 3472.3 4682.7 3520.7 4762 3541.5C4841.3 3562.3 4920.7 3555.7 4960.3 3552.3L5000 3549L5000 0L4960.3 0C4920.7 0 4841.3 0 4762 0C4682.7 0 4603.3 0 4524 0C4444.7 0 4365.3 0 4286 0C4206.7 0 4127.3 0 4048 0C3968.7 0 3889.3 0 3809.8 0C3730.3 0 3650.7 0 3571.2 0C3491.7 0 3412.3 0 3333 0C3253.7 0 3174.3 0 3095 0C3015.7 0 2936.3 0 2857 0C2777.7 0 2698.3 0 2619 0C2539.7 0 2460.3 0 2381 0C2301.7 0 2222.3 0 2143 0C2063.7 0 1984.3 0 1905 0C1825.7 0 1746.3 0 1667 0C1587.7 0 1508.3 0 1428.8 0C1349.3 0 1269.7 0 1190.2 0C1110.7 0 1031.3 0 952 0C872.7 0 793.3 0 714 0C634.7 0 555.3 0 476 0C396.7 0 317.3 0 238 0C158.7 0 79.3 0 39.7 0L0 0Z" fill="#309f47"></path><path d="M0 3226L39.7 3198C79.3 3170 158.7 3114 238 3062.3C317.3 3010.7 396.7 2963.3 476 2948.8C555.3 2934.3 634.7 2952.7 714 2956.8C793.3 2961 872.7 2951 952 2990.3C1031.3 3029.7 1110.7 3118.3 1190.2 3157.5C1269.7 3196.7 1349.3 3186.3 1428.8 3130.8C1508.3 3075.3 1587.7 2974.7 1667 3003.7C1746.3 3032.7 1825.7 3191.3 1905 3281.5C1984.3 3371.7 2063.7 3393.3 2143 3373.3C2222.3 3353.3 2301.7 3291.7 2381 3258.8C2460.3 3226 2539.7 3222 2619 3178.5C2698.3 3135 2777.7 3052 2857 3022.5C2936.3 2993 3015.7 3017 3095 3093.2C3174.3 3169.3 3253.7 3297.7 3333 3359.8C3412.3 3422 3491.7 3418 3571.2 3336.8C3650.7 3255.7 3730.3 3097.3 3809.8 3094.2C3889.3 3091 3968.7 3243 4048 3298.5C4127.3 3354 4206.7 3313 4286 3280.5C4365.3 3248 4444.7 3224 4524 3231.2C4603.3 3238.3 4682.7 3276.7 4762 3247.2C4841.3 3217.7 4920.7 3120.3 4960.3 3071.7L5000 3023L5000 0L4960.3 0C4920.7 0 4841.3 0 4762 0C4682.7 0 4603.3 0 4524 0C4444.7 0 4365.3 0 4286 0C4206.7 0 4127.3 0 4048 0C3968.7 0 3889.3 0 3809.8 0C3730.3 0 3650.7 0 3571.2 0C3491.7 0 3412.3 0 3333 0C3253.7 0 3174.3 0 3095 0C3015.7 0 2936.3 0 2857 0C2777.7 0 2698.3 0 2619 0C2539.7 0 2460.3 0 2381 0C2301.7 0 2222.3 0 2143 0C2063.7 0 1984.3 0 1905 0C1825.7 0 1746.3 0 1667 0C1587.7 0 1508.3 0 1428.8 0C1349.3 0 1269.7 0 1190.2 0C1110.7 0 1031.3 0 952 0C872.7 0 793.3 0 714 0C634.7 0 555.3 0 476 0C396.7 0 317.3 0 238 0C158.7 0 79.3 0 39.7 0L0 0Z" fill="#2da848"></path><path d="M0 2904L39.7 2856.7C79.3 2809.3 158.7 2714.7 238 2666.2C317.3 2617.7 396.7 2615.3 476 2651.8C555.3 2688.3 634.7 2763.7 714 2760.3C793.3 2757 872.7 2675 952 2611.8C1031.3 2548.7 1110.7 2504.3 1190.2 2530.8C1269.7 2557.3 1349.3 2654.7 1428.8 2715.3C1508.3 2776 1587.7 2800 1667 2791.2C1746.3 2782.3 1825.7 2740.7 1905 2738.7C1984.3 2736.7 2063.7 2774.3 2143 2728C2222.3 2681.7 2301.7 2551.3 2381 2523.3C2460.3 2495.3 2539.7 2569.7 2619 2604.3C2698.3 2639 2777.7 2634 2857 2606C2936.3 2578 3015.7 2527 3095 2584.5C3174.3 2642 3253.7 2808 3333 2811.5C3412.3 2815 3491.7 2656 3571.2 2582C3650.7 2508 3730.3 2519 3809.8 2564.8C3889.3 2610.7 3968.7 2691.3 4048 2766.8C4127.3 2842.3 4206.7 2912.7 4286 2863.2C4365.3 2813.7 4444.7 2644.3 4524 2615.8C4603.3 2587.3 4682.7 2699.7 4762 2734.5C4841.3 2769.3 4920.7 2726.7 4960.3 2705.3L5000 2684L5000 0L4960.3 0C4920.7 0 4841.3 0 4762 0C4682.7 0 4603.3 0 4524 0C4444.7 0 4365.3 0 4286 0C4206.7 0 4127.3 0 4048 0C3968.7 0 3889.3 0 3809.8 0C3730.3 0 3650.7 0 3571.2 0C3491.7 0 3412.3 0 3333 0C3253.7 0 3174.3 0 3095 0C3015.7 0 2936.3 0 2857 0C2777.7 0 2698.3 0 2619 0C2539.7 0 2460.3 0 2381 0C2301.7 0 2222.3 0 2143 0C2063.7 0 1984.3 0 1905 0C1825.7 0 1746.3 0 1667 0C1587.7 0 1508.3 0 1428.8 0C1349.3 0 1269.7 0 1190.2 0C1110.7 0 1031.3 0 952 0C872.7 0 793.3 0 714 0C634.7 0 555.3 0 476 0C396.7 0 317.3 0 238 0C158.7 0 79.3 0 39.7 0L0 0Z" fill="#2ab247"></path><path d="M0 2037L39.7 2059.5C79.3 2082 158.7 2127 238 2158.5C317.3 2190 396.7 2208 476 2232C555.3 2256 634.7 2286 714 2240.7C793.3 2195.3 872.7 2074.7 952 2111.5C1031.3 2148.3 1110.7 2342.7 1190.2 2356.5C1269.7 2370.3 1349.3 2203.7 1428.8 2163.2C1508.3 2122.7 1587.7 2208.3 1667 2208.7C1746.3 2209 1825.7 2124 1905 2145C1984.3 2166 2063.7 2293 2143 2324.3C2222.3 2355.7 2301.7 2291.3 2381 2231.3C2460.3 2171.3 2539.7 2115.7 2619 2159.8C2698.3 2204 2777.7 2348 2857 2340.3C2936.3 2332.7 3015.7 2173.3 3095 2088.2C3174.3 2003 3253.7 1992 3333 2004.7C3412.3 2017.3 3491.7 2053.7 3571.2 2118.3C3650.7 2183 3730.3 2276 3809.8 2303.7C3889.3 2331.3 3968.7 2293.7 4048 2322C4127.3 2350.3 4206.7 2444.7 4286 2442.3C4365.3 2440 4444.7 2341 4524 2285.8C4603.3 2230.7 4682.7 2219.3 4762 2239C4841.3 2258.7 4920.7 2309.3 4960.3 2334.7L5000 2360L5000 0L4960.3 0C4920.7 0 4841.3 0 4762 0C4682.7 0 4603.3 0 4524 0C4444.7 0 4365.3 0 4286 0C4206.7 0 4127.3 0 4048 0C3968.7 0 3889.3 0 3809.8 0C3730.3 0 3650.7 0 3571.2 0C3491.7 0 3412.3 0 3333 0C3253.7 0 3174.3 0 3095 0C3015.7 0 2936.3 0 2857 0C2777.7 0 2698.3 0 2619 0C2539.7 0 2460.3 0 2381 0C2301.7 0 2222.3 0 2143 0C2063.7 0 1984.3 0 1905 0C1825.7 0 1746.3 0 1667 0C1587.7 0 1508.3 0 1428.8 0C1349.3 0 1269.7 0 1190.2 0C1110.7 0 1031.3 0 952 0C872.7 0 793.3 0 714 0C634.7 0 555.3 0 476 0C396.7 0 317.3 0 238 0C158.7 0 79.3 0 39.7 0L0 0Z" fill="#27bc47"></path><path d="M0 1611L39.7 1667.8C79.3 1724.7 158.7 1838.3 238 1913C317.3 1987.7 396.7 2023.3 476 2012.8C555.3 2002.3 634.7 1945.7 714 1937C793.3 1928.3 872.7 1967.7 952 1930.5C1031.3 1893.3 1110.7 1779.7 1190.2 1732.5C1269.7 1685.3 1349.3 1704.7 1428.8 1693.7C1508.3 1682.7 1587.7 1641.3 1667 1666.7C1746.3 1692 1825.7 1784 1905 1856.7C1984.3 1929.3 2063.7 1982.7 2143 1963C2222.3 1943.3 2301.7 1850.7 2381 1773.5C2460.3 1696.3 2539.7 1634.7 2619 1669.5C2698.3 1704.3 2777.7 1835.7 2857 1879.7C2936.3 1923.7 3015.7 1880.3 3095 1861.7C3174.3 1843 3253.7 1849 3333 1859.8C3412.3 1870.7 3491.7 1886.3 3571.2 1898.7C3650.7 1911 3730.3 1920 3809.8 1860.8C3889.3 1801.7 3968.7 1674.3 4048 1608.3C4127.3 1542.3 4206.7 1537.7 4286 1551.5C4365.3 1565.3 4444.7 1597.7 4524 1655.3C4603.3 1713 4682.7 1796 4762 1821.2C4841.3 1846.3 4920.7 1813.7 4960.3 1797.3L5000 1781L5000 0L4960.3 0C4920.7 0 4841.3 0 4762 0C4682.7 0 4603.3 0 4524 0C4444.7 0 4365.3 0 4286 0C4206.7 0 4127.3 0 4048 0C3968.7 0 3889.3 0 3809.8 0C3730.3 0 3650.7 0 3571.2 0C3491.7 0 3412.3 0 3333 0C3253.7 0 3174.3 0 3095 0C3015.7 0 2936.3 0 2857 0C2777.7 0 2698.3 0 2619 0C2539.7 0 2460.3 0 2381 0C2301.7 0 2222.3 0 2143 0C2063.7 0 1984.3 0 1905 0C1825.7 0 1746.3 0 1667 0C1587.7 0 1508.3 0 1428.8 0C1349.3 0 1269.7 0 1190.2 0C1110.7 0 1031.3 0 952 0C872.7 0 793.3 0 714 0C634.7 0 555.3 0 476 0C396.7 0 317.3 0 238 0C158.7 0 79.3 0 39.7 0L0 0Z" fill="#23c646"></path><path d="M0 1103L39.7 1151.7C79.3 1200.3 158.7 1297.7 238 1380.3C317.3 1463 396.7 1531 476 1499.8C555.3 1468.7 634.7 1338.3 714 1329.5C793.3 1320.7 872.7 1433.3 952 1490.5C1031.3 1547.7 1110.7 1549.3 1190.2 1519.8C1269.7 1490.3 1349.3 1429.7 1428.8 1400.8C1508.3 1372 1587.7 1375 1667 1362C1746.3 1349 1825.7 1320 1905 1286.7C1984.3 1253.3 2063.7 1215.7 2143 1213.5C2222.3 1211.3 2301.7 1244.7 2381 1266C2460.3 1287.3 2539.7 1296.7 2619 1344.3C2698.3 1392 2777.7 1478 2857 1481.3C2936.3 1484.7 3015.7 1405.3 3095 1407.3C3174.3 1409.3 3253.7 1492.7 3333 1490C3412.3 1487.3 3491.7 1398.7 3571.2 1382.3C3650.7 1366 3730.3 1422 3809.8 1476.7C3889.3 1531.3 3968.7 1584.7 4048 1597.7C4127.3 1610.7 4206.7 1583.3 4286 1499C4365.3 1414.7 4444.7 1273.3 4524 1284C4603.3 1294.7 4682.7 1457.3 4762 1503.8C4841.3 1550.3 4920.7 1480.7 4960.3 1445.8L5000 1411L5000 0L4960.3 0C4920.7 0 4841.3 0 4762 0C4682.7 0 4603.3 0 4524 0C4444.7 0 4365.3 0 4286 0C4206.7 0 4127.3 0 4048 0C3968.7 0 3889.3 0 3809.8 0C3730.3 0 3650.7 0 3571.2 0C3491.7 0 3412.3 0 3333 0C3253.7 0 3174.3 0 3095 0C3015.7 0 2936.3 0 2857 0C2777.7 0 2698.3 0 2619 0C2539.7 0 2460.3 0 2381 0C2301.7 0 2222.3 0 2143 0C2063.7 0 1984.3 0 1905 0C1825.7 0 1746.3 0 1667 0C1587.7 0 1508.3 0 1428.8 0C1349.3 0 1269.7 0 1190.2 0C1110.7 0 1031.3 0 952 0C872.7 0 793.3 0 714 0C634.7 0 555.3 0 476 0C396.7 0 317.3 0 238 0C158.7 0 79.3 0 39.7 0L0 0Z" fill="#1fd045"></path><path d="M0 714L39.7 777.2C79.3 840.3 158.7 966.7 238 1032.7C317.3 1098.7 396.7 1104.3 476 1064.2C555.3 1024 634.7 938 714 885.2C793.3 832.3 872.7 812.7 952 801.7C1031.3 790.7 1110.7 788.3 1190.2 794.3C1269.7 800.3 1349.3 814.7 1428.8 854C1508.3 893.3 1587.7 957.7 1667 918.2C1746.3 878.7 1825.7 735.3 1905 684.5C1984.3 633.7 2063.7 675.3 2143 777.8C2222.3 880.3 2301.7 1043.7 2381 1123.2C2460.3 1202.7 2539.7 1198.3 2619 1157.8C2698.3 1117.3 2777.7 1040.7 2857 959.3C2936.3 878 3015.7 792 3095 739.2C3174.3 686.3 3253.7 666.7 3333 694.2C3412.3 721.7 3491.7 796.3 3571.2 821.3C3650.7 846.3 3730.3 821.7 3809.8 831C3889.3 840.3 3968.7 883.7 4048 880.7C4127.3 877.7 4206.7 828.3 4286 862.8C4365.3 897.3 4444.7 1015.7 4524 1077.2C4603.3 1138.7 4682.7 1143.3 4762 1077C4841.3 1010.7 4920.7 873.3 4960.3 804.7L5000 736L5000 0L4960.3 0C4920.7 0 4841.3 0 4762 0C4682.7 0 4603.3 0 4524 0C4444.7 0 4365.3 0 4286 0C4206.7 0 4127.3 0 4048 0C3968.7 0 3889.3 0 3809.8 0C3730.3 0 3650.7 0 3571.2 0C3491.7 0 3412.3 0 3333 0C3253.7 0 3174.3 0 3095 0C3015.7 0 2936.3 0 2857 0C2777.7 0 2698.3 0 2619 0C2539.7 0 2460.3 0 2381 0C2301.7 0 2222.3 0 2143 0C2063.7 0 1984.3 0 1905 0C1825.7 0 1746.3 0 1667 0C1587.7 0 1508.3 0 1428.8 0C1349.3 0 1269.7 0 1190.2 0C1110.7 0 1031.3 0 952 0C872.7 0 793.3 0 714 0C634.7 0 555.3 0 476 0C396.7 0 317.3 0 238 0C158.7 0 79.3 0 39.7 0L0 0Z" fill="#1ada43"></path><path d="M0 596L39.7 521.3C79.3 446.7 158.7 297.3 238 252.7C317.3 208 396.7 268 476 269.5C555.3 271 634.7 214 714 218.2C793.3 222.3 872.7 287.7 952 292.3C1031.3 297 1110.7 241 1190.2 213.3C1269.7 185.7 1349.3 186.3 1428.8 278C1508.3 369.7 1587.7 552.3 1667 560.8C1746.3 569.3 1825.7 403.7 1905 376.3C1984.3 349 2063.7 460 2143 498.3C2222.3 536.7 2301.7 502.3 2381 503C2460.3 503.7 2539.7 539.3 2619 555C2698.3 570.7 2777.7 566.3 2857 581.8C2936.3 597.3 3015.7 632.7 3095 657C3174.3 681.3 3253.7 694.7 3333 627C3412.3 559.3 3491.7 410.7 3571.2 315.8C3650.7 221 3730.3 180 3809.8 232.7C3889.3 285.3 3968.7 431.7 4048 494.3C4127.3 557 4206.7 536 4286 539.5C4365.3 543 4444.7 571 4524 567.7C4603.3 564.3 4682.7 529.7 4762 495.3C4841.3 461 4920.7 427 4960.3 410L5000 393L5000 0L4960.3 0C4920.7 0 4841.3 0 4762 0C4682.7 0 4603.3 0 4524 0C4444.7 0 4365.3 0 4286 0C4206.7 0 4127.3 0 4048 0C3968.7 0 3889.3 0 3809.8 0C3730.3 0 3650.7 0 3571.2 0C3491.7 0 3412.3 0 3333 0C3253.7 0 3174.3 0 3095 0C3015.7 0 2936.3 0 2857 0C2777.7 0 2698.3 0 2619 0C2539.7 0 2460.3 0 2381 0C2301.7 0 2222.3 0 2143 0C2063.7 0 1984.3 0 1905 0C1825.7 0 1746.3 0 1667 0C1587.7 0 1508.3 0 1428.8 0C1349.3 0 1269.7 0 1190.2 0C1110.7 0 1031.3 0 952 0C872.7 0 793.3 0 714 0C634.7 0 555.3 0 476 0C396.7 0 317.3 0 238 0C158.7 0 79.3 0 39.7 0L0 0Z" fill="#14e441"></path></svg>