<svg id="visual" viewBox="0 0 5000 5000" width="5000" height="5000" xmlns="http://www.w3.org/2000/svg" xmlns:xlink="http://www.w3.org/1999/xlink" version="1.1"><path d="M0 1301L64.2 1159.3C128.3 1017.7 256.7 734.3 384.8 759.3C513 784.3 641 1117.7 769.2 1134.3C897.3 1151 1025.7 851 1153.8 701C1282 551 1410 551 1538.2 634.3C1666.3 717.7 1794.7 884.3 1923 1059.3C2051.3 1234.3 2179.7 1417.7 2307.8 1576C2436 1734.3 2564 1867.7 2692.2 1792.7C2820.3 1717.7 2948.7 1434.3 3077 1242.7C3205.3 1051 3333.7 951 3461.8 909.3C3590 867.7 3718 884.3 3846.2 1026C3974.3 1167.7 4102.7 1434.3 4230.8 1401C4359 1367.7 4487 1034.3 4615.2 826C4743.3 617.7 4871.7 534.3 4935.8 492.7L5000 451L5000 0L4935.8 0C4871.7 0 4743.3 0 4615.2 0C4487 0 4359 0 4230.8 0C4102.7 0 3974.3 0 3846.2 0C3718 0 3590 0 3461.8 0C3333.7 0 3205.3 0 3077 0C2948.7 0 2820.3 0 2692.2 0C2564 0 2436 0 2307.8 0C2179.7 0 2051.3 0 1923 0C1794.7 0 1666.3 0 1538.2 0C1410 0 1282 0 1153.8 0C1025.7 0 897.3 0 769.2 0C641 0 513 0 384.8 0C256.7 0 128.3 0 64.2 0L0 0Z" fill="#a0eeb3"></path><path d="M0 1851L64.2 1801C128.3 1751 256.7 1651 384.8 1676C513 1701 641 1851 769.2 1801C897.3 1751 1025.7 1501 1153.8 1259.3C1282 1017.7 1410 784.3 1538.2 926C1666.3 1067.7 1794.7 1584.3 1923 1851C2051.3 2117.7 2179.7 2134.3 2307.8 2226C2436 2317.7 2564 2484.3 2692.2 2442.7C2820.3 2401 2948.7 2151 3077 1867.7C3205.3 1584.3 3333.7 1267.7 3461.8 1109.3C3590 951 3718 951 3846.2 1084.3C3974.3 1217.7 4102.7 1484.3 4230.8 1609.3C4359 1734.3 4487 1717.7 4615.2 1542.7C4743.3 1367.7 4871.7 1034.3 4935.8 867.7L5000 701L5000 449L4935.8 490.7C4871.7 532.3 4743.3 615.7 4615.2 824C4487 1032.3 4359 1365.7 4230.8 1399C4102.7 1432.3 3974.3 1165.7 3846.2 1024C3718 882.3 3590 865.7 3461.8 907.3C3333.7 949 3205.3 1049 3077 1240.7C2948.7 1432.3 2820.3 1715.7 2692.2 1790.7C2564 1865.7 2436 1732.3 2307.8 1574C2179.7 1415.7 2051.3 1232.3 1923 1057.3C1794.7 882.3 1666.3 715.7 1538.2 632.3C1410 549 1282 549 1153.8 699C1025.7 849 897.3 1149 769.2 1132.3C641 1115.7 513 782.3 384.8 757.3C256.7 732.3 128.3 1015.7 64.2 1157.3L0 1299Z" fill="#8eeba5"></path><path d="M0 3201L64.2 3226C128.3 3251 256.7 3301 384.8 3242.7C513 3184.3 641 3017.7 769.2 2926C897.3 2834.3 1025.7 2817.7 1153.8 2692.7C1282 2567.7 1410 2334.3 1538.2 2317.7C1666.3 2301 1794.7 2501 1923 2576C2051.3 2651 2179.7 2601 2307.8 2709.3C2436 2817.7 2564 3084.3 2692.2 3026C2820.3 2967.7 2948.7 2584.3 3077 2426C3205.3 2267.7 3333.7 2334.3 3461.8 2142.7C3590 1951 3718 1501 3846.2 1459.3C3974.3 1417.7 4102.7 1784.3 4230.8 1976C4359 2167.7 4487 2184.3 4615.2 1976C4743.3 1767.7 4871.7 1334.3 4935.8 1117.7L5000 901L5000 699L4935.8 865.7C4871.7 1032.3 4743.3 1365.7 4615.2 1540.7C4487 1715.7 4359 1732.3 4230.8 1607.3C4102.7 1482.3 3974.3 1215.7 3846.2 1082.3C3718 949 3590 949 3461.8 1107.3C3333.7 1265.7 3205.3 1582.3 3077 1865.7C2948.7 2149 2820.3 2399 2692.2 2440.7C2564 2482.3 2436 2315.7 2307.8 2224C2179.7 2132.3 2051.3 2115.7 1923 1849C1794.7 1582.3 1666.3 1065.7 1538.2 924C1410 782.3 1282 1015.7 1153.8 1257.3C1025.7 1499 897.3 1749 769.2 1799C641 1849 513 1699 384.8 1674C256.7 1649 128.3 1749 64.2 1799L0 1849Z" fill="#7ae797"></path><path d="M0 4051L64.2 3976C128.3 3901 256.7 3751 384.8 3609.3C513 3467.7 641 3334.3 769.2 3217.7C897.3 3101 1025.7 3001 1153.8 2967.7C1282 2934.3 1410 2967.7 1538.2 2942.7C1666.3 2917.7 1794.7 2834.3 1923 2809.3C2051.3 2784.3 2179.7 2817.7 2307.8 2917.7C2436 3017.7 2564 3184.3 2692.2 3126C2820.3 3067.7 2948.7 2784.3 3077 2759.3C3205.3 2734.3 3333.7 2967.7 3461.8 2851C3590 2734.3 3718 2267.7 3846.2 2092.7C3974.3 1917.7 4102.7 2034.3 4230.8 2126C4359 2217.7 4487 2284.3 4615.2 2209.3C4743.3 2134.3 4871.7 1917.7 4935.8 1809.3L5000 1701L5000 899L4935.8 1115.7C4871.7 1332.3 4743.3 1765.7 4615.2 1974C4487 2182.3 4359 2165.7 4230.8 1974C4102.7 1782.3 3974.3 1415.7 3846.2 1457.3C3718 1499 3590 1949 3461.8 2140.7C3333.7 2332.3 3205.3 2265.7 3077 2424C2948.7 2582.3 2820.3 2965.7 2692.2 3024C2564 3082.3 2436 2815.7 2307.8 2707.3C2179.7 2599 2051.3 2649 1923 2574C1794.7 2499 1666.3 2299 1538.2 2315.7C1410 2332.3 1282 2565.7 1153.8 2690.7C1025.7 2815.7 897.3 2832.3 769.2 2924C641 3015.7 513 3182.3 384.8 3240.7C256.7 3299 128.3 3249 64.2 3224L0 3199Z" fill="#69da87"></path><path d="M0 4801L64.2 4767.7C128.3 4734.3 256.7 4667.7 384.8 4517.7C513 4367.7 641 4134.3 769.2 4001C897.3 3867.7 1025.7 3834.3 1153.8 3859.3C1282 3884.3 1410 3967.7 1538.2 3934.3C1666.3 3901 1794.7 3751 1923 3642.7C2051.3 3534.3 2179.7 3467.7 2307.8 3434.3C2436 3401 2564 3401 2692.2 3417.7C2820.3 3434.3 2948.7 3467.7 3077 3601C3205.3 3734.3 3333.7 3967.7 3461.8 3851C3590 3734.3 3718 3267.7 3846.2 3092.7C3974.3 2917.7 4102.7 3034.3 4230.8 2984.3C4359 2934.3 4487 2717.7 4615.2 2576C4743.3 2434.3 4871.7 2367.7 4935.8 2334.3L5000 2301L5000 1699L4935.8 1807.3C4871.7 1915.7 4743.3 2132.3 4615.2 2207.3C4487 2282.3 4359 2215.7 4230.8 2124C4102.7 2032.3 3974.3 1915.7 3846.2 2090.7C3718 2265.7 3590 2732.3 3461.8 2849C3333.7 2965.7 3205.3 2732.3 3077 2757.3C2948.7 2782.3 2820.3 3065.7 2692.2 3124C2564 3182.3 2436 3015.7 2307.8 2915.7C2179.7 2815.7 2051.3 2782.3 1923 2807.3C1794.7 2832.3 1666.3 2915.7 1538.2 2940.7C1410 2965.7 1282 2932.3 1153.8 2965.7C1025.7 2999 897.3 3099 769.2 3215.7C641 3332.3 513 3465.7 384.8 3607.3C256.7 3749 128.3 3899 64.2 3974L0 4049Z" fill="#5cc376"></path><path d="M0 5001L64.2 5001C128.3 5001 256.7 5001 384.8 5001C513 5001 641 5001 769.2 5001C897.3 5001 1025.7 5001 1153.8 5001C1282 5001 1410 5001 1538.2 5001C1666.3 5001 1794.7 5001 1923 5001C2051.3 5001 2179.7 5001 2307.8 5001C2436 5001 2564 5001 2692.2 5001C2820.3 5001 2948.7 5001 3077 5001C3205.3 5001 3333.7 5001 3461.8 5001C3590 5001 3718 5001 3846.2 5001C3974.3 5001 4102.7 5001 4230.8 5001C4359 5001 4487 5001 4615.2 5001C4743.3 5001 4871.7 5001 4935.8 5001L5000 5001L5000 2299L4935.8 2332.3C4871.7 2365.7 4743.3 2432.3 4615.2 2574C4487 2715.7 4359 2932.3 4230.8 2982.3C4102.7 3032.3 3974.3 2915.7 3846.2 3090.7C3718 3265.7 3590 3732.3 3461.8 3849C3333.7 3965.7 3205.3 3732.3 3077 3599C2948.7 3465.7 2820.3 3432.3 2692.2 3415.7C2564 3399 2436 3399 2307.8 3432.3C2179.7 3465.7 2051.3 3532.3 1923 3640.7C1794.7 3749 1666.3 3899 1538.2 3932.3C1410 3965.7 1282 3882.3 1153.8 3857.3C1025.7 3832.3 897.3 3865.7 769.2 3999C641 4132.3 513 4365.7 384.8 4515.7C256.7 4665.7 128.3 4732.3 64.2 4765.7L0 4799Z" fill="#4fad66"></path></svg>