<svg id="visual" viewBox="0 0 5000 5000" width="5000" height="5000" xmlns="http://www.w3.org/2000/svg" xmlns:xlink="http://www.w3.org/1999/xlink" version="1.1"><path d="M0 1101L75.8 1017.7C151.7 934.3 303.3 767.7 454.8 717.7C606.3 667.7 757.7 734.3 909.2 759.3C1060.7 784.3 1212.3 767.7 1363.8 692.7C1515.3 617.7 1666.7 484.3 1818.2 517.7C1969.7 551 2121.3 751 2272.8 792.7C2424.3 834.3 2575.7 717.7 2727.2 726C2878.7 734.3 3030.3 867.7 3181.8 926C3333.3 984.3 3484.7 967.7 3636.2 859.3C3787.7 751 3939.3 551 4090.8 484.3C4242.3 417.7 4393.7 484.3 4545.2 559.3C4696.7 634.3 4848.3 717.7 4924.2 759.3L5000 801L5000 0L4924.2 0C4848.3 0 4696.7 0 4545.2 0C4393.7 0 4242.3 0 4090.8 0C3939.3 0 3787.7 0 3636.2 0C3484.7 0 3333.3 0 3181.8 0C3030.3 0 2878.7 0 2727.2 0C2575.7 0 2424.3 0 2272.8 0C2121.3 0 1969.7 0 1818.2 0C1666.7 0 1515.3 0 1363.8 0C1212.3 0 1060.7 0 909.2 0C757.7 0 606.3 0 454.8 0C303.3 0 151.7 0 75.8 0L0 0Z" fill="#055717"></path><path d="M0 1601L75.8 1617.7C151.7 1634.3 303.3 1667.7 454.8 1717.7C606.3 1767.7 757.7 1834.3 909.2 1876C1060.7 1917.7 1212.3 1934.3 1363.8 1842.7C1515.3 1751 1666.7 1551 1818.2 1551C1969.7 1551 2121.3 1751 2272.8 1834.3C2424.3 1917.7 2575.7 1884.3 2727.2 1842.7C2878.7 1801 3030.3 1751 3181.8 1801C3333.3 1851 3484.7 2001 3636.2 2001C3787.7 2001 3939.3 1851 4090.8 1776C4242.3 1701 4393.7 1701 4545.2 1634.3C4696.7 1567.7 4848.3 1434.3 4924.2 1367.7L5000 1301L5000 799L4924.2 757.3C4848.3 715.7 4696.7 632.3 4545.2 557.3C4393.7 482.3 4242.3 415.7 4090.8 482.3C3939.3 549 3787.7 749 3636.2 857.3C3484.7 965.7 3333.3 982.3 3181.8 924C3030.3 865.7 2878.7 732.3 2727.2 724C2575.7 715.7 2424.3 832.3 2272.8 790.7C2121.3 749 1969.7 549 1818.2 515.7C1666.7 482.3 1515.3 615.7 1363.8 690.7C1212.3 765.7 1060.7 782.3 909.2 757.3C757.7 732.3 606.3 665.7 454.8 715.7C303.3 765.7 151.7 932.3 75.8 1015.7L0 1099Z" fill="#01440c"></path><path d="M0 1951L75.8 2017.7C151.7 2084.3 303.3 2217.7 454.8 2351C606.3 2484.3 757.7 2617.7 909.2 2634.3C1060.7 2651 1212.3 2551 1363.8 2417.7C1515.3 2284.3 1666.7 2117.7 1818.2 2167.7C1969.7 2217.7 2121.3 2484.3 2272.8 2559.3C2424.3 2634.3 2575.7 2517.7 2727.2 2442.7C2878.7 2367.7 3030.3 2334.3 3181.8 2401C3333.3 2467.7 3484.7 2634.3 3636.2 2634.3C3787.7 2634.3 3939.3 2467.7 4090.8 2426C4242.3 2384.3 4393.7 2467.7 4545.2 2417.7C4696.7 2367.7 4848.3 2184.3 4924.2 2092.7L5000 2001L5000 1299L4924.2 1365.7C4848.3 1432.3 4696.7 1565.7 4545.2 1632.3C4393.7 1699 4242.3 1699 4090.8 1774C3939.3 1849 3787.7 1999 3636.2 1999C3484.7 1999 3333.3 1849 3181.8 1799C3030.3 1749 2878.7 1799 2727.2 1840.7C2575.7 1882.3 2424.3 1915.7 2272.8 1832.3C2121.3 1749 1969.7 1549 1818.2 1549C1666.7 1549 1515.3 1749 1363.8 1840.7C1212.3 1932.3 1060.7 1915.7 909.2 1874C757.7 1832.3 606.3 1765.7 454.8 1715.7C303.3 1665.7 151.7 1632.3 75.8 1615.7L0 1599Z" fill="#003100"></path><path d="M0 4101L75.8 4076C151.7 4051 303.3 4001 454.8 3951C606.3 3901 757.7 3851 909.2 3842.7C1060.7 3834.3 1212.3 3867.7 1363.8 3701C1515.3 3534.3 1666.7 3167.7 1818.2 3217.7C1969.7 3267.7 2121.3 3734.3 2272.8 3892.7C2424.3 4051 2575.7 3901 2727.2 3834.3C2878.7 3767.7 3030.3 3784.3 3181.8 3751C3333.3 3717.7 3484.7 3634.3 3636.2 3501C3787.7 3367.7 3939.3 3184.3 4090.8 3117.7C4242.3 3051 4393.7 3101 4545.2 3259.3C4696.7 3417.7 4848.3 3684.3 4924.2 3817.7L5000 3951L5000 1999L4924.2 2090.7C4848.3 2182.3 4696.7 2365.7 4545.2 2415.7C4393.7 2465.7 4242.3 2382.3 4090.8 2424C3939.3 2465.7 3787.7 2632.3 3636.2 2632.3C3484.7 2632.3 3333.3 2465.7 3181.8 2399C3030.3 2332.3 2878.7 2365.7 2727.2 2440.7C2575.7 2515.7 2424.3 2632.3 2272.8 2557.3C2121.3 2482.3 1969.7 2215.7 1818.2 2165.7C1666.7 2115.7 1515.3 2282.3 1363.8 2415.7C1212.3 2549 1060.7 2649 909.2 2632.3C757.7 2615.7 606.3 2482.3 454.8 2349C303.3 2215.7 151.7 2082.3 75.8 2015.7L0 1949Z" fill="#002100"></path><path d="M0 5001L75.8 5001C151.7 5001 303.3 5001 454.8 5001C606.3 5001 757.7 5001 909.2 5001C1060.7 5001 1212.3 5001 1363.8 5001C1515.3 5001 1666.7 5001 1818.2 5001C1969.7 5001 2121.3 5001 2272.8 5001C2424.3 5001 2575.7 5001 2727.2 5001C2878.7 5001 3030.3 5001 3181.8 5001C3333.3 5001 3484.7 5001 3636.2 5001C3787.7 5001 3939.3 5001 4090.8 5001C4242.3 5001 4393.7 5001 4545.2 5001C4696.7 5001 4848.3 5001 4924.2 5001L5000 5001L5000 3949L4924.2 3815.7C4848.3 3682.3 4696.7 3415.7 4545.2 3257.3C4393.7 3099 4242.3 3049 4090.8 3115.7C3939.3 3182.3 3787.7 3365.7 3636.2 3499C3484.7 3632.3 3333.3 3715.7 3181.8 3749C3030.3 3782.3 2878.7 3765.7 2727.2 3832.3C2575.7 3899 2424.3 4049 2272.8 3890.7C2121.3 3732.3 1969.7 3265.7 1818.2 3215.7C1666.7 3165.7 1515.3 3532.3 1363.8 3699C1212.3 3865.7 1060.7 3832.3 909.2 3840.7C757.7 3849 606.3 3899 454.8 3949C303.3 3999 151.7 4049 75.8 4074L0 4099Z" fill="#000000"></path></svg>