<svg id="visual" viewBox="0 0 5000 600" width="5000" height="600" xmlns="http://www.w3.org/2000/svg" xmlns:xlink="http://www.w3.org/1999/xlink" version="1.1"><rect x="0" y="0" width="5000" height="600" fill="#ffffff"></rect><path d="M0 303L39.7 307.8C79.3 312.7 158.7 322.3 238 331.7C317.3 341 396.7 350 476 344.2C555.3 338.3 634.7 317.7 714 302.2C793.3 286.7 872.7 276.3 952 270.8C1031.3 265.3 1110.7 264.7 1190.2 268.2C1269.7 271.7 1349.3 279.3 1428.8 281.5C1508.3 283.7 1587.7 280.3 1667 274.3C1746.3 268.3 1825.7 259.7 1905 268.2C1984.3 276.7 2063.7 302.3 2143 317C2222.3 331.7 2301.7 335.3 2381 338.7C2460.3 342 2539.7 345 2619 333.7C2698.3 322.3 2777.7 296.7 2857 296C2936.3 295.3 3015.7 319.7 3095 332.2C3174.3 344.7 3253.7 345.3 3333 338.8C3412.3 332.3 3491.7 318.7 3571.2 301.7C3650.7 284.7 3730.3 264.3 3809.8 271.5C3889.3 278.7 3968.7 313.3 4048 313.7C4127.3 314 4206.7 280 4286 279.7C4365.3 279.3 4444.7 312.7 4524 332.2C4603.3 351.7 4682.7 357.3 4762 361.3C4841.3 365.3 4920.7 367.7 4960.3 368.8L5000 370L5000 601L4960.3 601C4920.7 601 4841.3 601 4762 601C4682.7 601 4603.3 601 4524 601C4444.7 601 4365.3 601 4286 601C4206.7 601 4127.3 601 4048 601C3968.7 601 3889.3 601 3809.8 601C3730.3 601 3650.7 601 3571.2 601C3491.7 601 3412.3 601 3333 601C3253.7 601 3174.3 601 3095 601C3015.7 601 2936.3 601 2857 601C2777.7 601 2698.3 601 2619 601C2539.7 601 2460.3 601 2381 601C2301.7 601 2222.3 601 2143 601C2063.7 601 1984.3 601 1905 601C1825.7 601 1746.3 601 1667 601C1587.7 601 1508.3 601 1428.8 601C1349.3 601 1269.7 601 1190.2 601C1110.7 601 1031.3 601 952 601C872.7 601 793.3 601 714 601C634.7 601 555.3 601 476 601C396.7 601 317.3 601 238 601C158.7 601 79.3 601 39.7 601L0 601Z" fill="#329547"></path><path d="M0 372L39.7 376.5C79.3 381 158.7 390 238 381.3C317.3 372.7 396.7 346.3 476 343C555.3 339.7 634.7 359.3 714 372.3C793.3 385.3 872.7 391.7 952 381C1031.3 370.3 1110.7 342.7 1190.2 342.5C1269.7 342.3 1349.3 369.7 1428.8 373C1508.3 376.3 1587.7 355.7 1667 347.2C1746.3 338.7 1825.7 342.3 1905 338C1984.3 333.7 2063.7 321.3 2143 326.8C2222.3 332.3 2301.7 355.7 2381 360.7C2460.3 365.7 2539.7 352.3 2619 337.2C2698.3 322 2777.7 305 2857 301C2936.3 297 3015.7 306 3095 318C3174.3 330 3253.7 345 3333 342.3C3412.3 339.7 3491.7 319.3 3571.2 316.8C3650.7 314.3 3730.3 329.7 3809.8 345.3C3889.3 361 3968.7 377 4048 375.5C4127.3 374 4206.7 355 4286 340C4365.3 325 4444.7 314 4524 312.8C4603.3 311.7 4682.7 320.3 4762 332.8C4841.3 345.3 4920.7 361.7 4960.3 369.8L5000 378L5000 601L4960.3 601C4920.7 601 4841.3 601 4762 601C4682.7 601 4603.3 601 4524 601C4444.7 601 4365.3 601 4286 601C4206.7 601 4127.3 601 4048 601C3968.7 601 3889.3 601 3809.8 601C3730.3 601 3650.7 601 3571.2 601C3491.7 601 3412.3 601 3333 601C3253.7 601 3174.3 601 3095 601C3015.7 601 2936.3 601 2857 601C2777.7 601 2698.3 601 2619 601C2539.7 601 2460.3 601 2381 601C2301.7 601 2222.3 601 2143 601C2063.7 601 1984.3 601 1905 601C1825.7 601 1746.3 601 1667 601C1587.7 601 1508.3 601 1428.8 601C1349.3 601 1269.7 601 1190.2 601C1110.7 601 1031.3 601 952 601C872.7 601 793.3 601 714 601C634.7 601 555.3 601 476 601C396.7 601 317.3 601 238 601C158.7 601 79.3 601 39.7 601L0 601Z" fill="#30a048"></path><path d="M0 333L39.7 334.3C79.3 335.7 158.7 338.3 238 345C317.3 351.7 396.7 362.3 476 370.8C555.3 379.3 634.7 385.7 714 390C793.3 394.3 872.7 396.7 952 396.2C1031.3 395.7 1110.7 392.3 1190.2 387.5C1269.7 382.7 1349.3 376.3 1428.8 374.8C1508.3 373.3 1587.7 376.7 1667 383.8C1746.3 391 1825.7 402 1905 404.2C1984.3 406.3 2063.7 399.7 2143 400.7C2222.3 401.7 2301.7 410.3 2381 415C2460.3 419.7 2539.7 420.3 2619 411C2698.3 401.7 2777.7 382.3 2857 373.2C2936.3 364 3015.7 365 3095 370.7C3174.3 376.3 3253.7 386.7 3333 393.5C3412.3 400.3 3491.7 403.7 3571.2 407.7C3650.7 411.7 3730.3 416.3 3809.8 419.8C3889.3 423.3 3968.7 425.7 4048 410C4127.3 394.3 4206.7 360.7 4286 357.3C4365.3 354 4444.7 381 4524 394.2C4603.3 407.3 4682.7 406.7 4762 400.3C4841.3 394 4920.7 382 4960.3 376L5000 370L5000 601L4960.3 601C4920.7 601 4841.3 601 4762 601C4682.7 601 4603.3 601 4524 601C4444.7 601 4365.3 601 4286 601C4206.7 601 4127.3 601 4048 601C3968.7 601 3889.3 601 3809.8 601C3730.3 601 3650.7 601 3571.2 601C3491.7 601 3412.3 601 3333 601C3253.7 601 3174.3 601 3095 601C3015.7 601 2936.3 601 2857 601C2777.7 601 2698.3 601 2619 601C2539.7 601 2460.3 601 2381 601C2301.7 601 2222.3 601 2143 601C2063.7 601 1984.3 601 1905 601C1825.7 601 1746.3 601 1667 601C1587.7 601 1508.3 601 1428.8 601C1349.3 601 1269.7 601 1190.2 601C1110.7 601 1031.3 601 952 601C872.7 601 793.3 601 714 601C634.7 601 555.3 601 476 601C396.7 601 317.3 601 238 601C158.7 601 79.3 601 39.7 601L0 601Z" fill="#2dab48"></path><path d="M0 439L39.7 441C79.3 443 158.7 447 238 440.3C317.3 433.7 396.7 416.3 476 416.5C555.3 416.7 634.7 434.3 714 432.3C793.3 430.3 872.7 408.7 952 399.2C1031.3 389.7 1110.7 392.3 1190.2 390.5C1269.7 388.7 1349.3 382.3 1428.8 385.8C1508.3 389.3 1587.7 402.7 1667 405.2C1746.3 407.7 1825.7 399.3 1905 405.2C1984.3 411 2063.7 431 2143 434.8C2222.3 438.7 2301.7 426.3 2381 421C2460.3 415.7 2539.7 417.3 2619 419C2698.3 420.7 2777.7 422.3 2857 422.8C2936.3 423.3 3015.7 422.7 3095 424.5C3174.3 426.3 3253.7 430.7 3333 431.5C3412.3 432.3 3491.7 429.7 3571.2 431.3C3650.7 433 3730.3 439 3809.8 443.2C3889.3 447.3 3968.7 449.7 4048 441.8C4127.3 434 4206.7 416 4286 403.7C4365.3 391.3 4444.7 384.7 4524 380.5C4603.3 376.3 4682.7 374.7 4762 373.8C4841.3 373 4920.7 373 4960.3 373L5000 373L5000 601L4960.3 601C4920.7 601 4841.3 601 4762 601C4682.7 601 4603.3 601 4524 601C4444.7 601 4365.3 601 4286 601C4206.7 601 4127.3 601 4048 601C3968.7 601 3889.3 601 3809.8 601C3730.3 601 3650.7 601 3571.2 601C3491.7 601 3412.3 601 3333 601C3253.7 601 3174.3 601 3095 601C3015.7 601 2936.3 601 2857 601C2777.7 601 2698.3 601 2619 601C2539.7 601 2460.3 601 2381 601C2301.7 601 2222.3 601 2143 601C2063.7 601 1984.3 601 1905 601C1825.7 601 1746.3 601 1667 601C1587.7 601 1508.3 601 1428.8 601C1349.3 601 1269.7 601 1190.2 601C1110.7 601 1031.3 601 952 601C872.7 601 793.3 601 714 601C634.7 601 555.3 601 476 601C396.7 601 317.3 601 238 601C158.7 601 79.3 601 39.7 601L0 601Z" fill="#29b647"></path><path d="M0 478L39.7 472.7C79.3 467.3 158.7 456.7 238 455C317.3 453.3 396.7 460.7 476 461.3C555.3 462 634.7 456 714 458.5C793.3 461 872.7 472 952 468.5C1031.3 465 1110.7 447 1190.2 435.7C1269.7 424.3 1349.3 419.7 1428.8 422.8C1508.3 426 1587.7 437 1667 438C1746.3 439 1825.7 430 1905 428.7C1984.3 427.3 2063.7 433.7 2143 437.8C2222.3 442 2301.7 444 2381 446.3C2460.3 448.7 2539.7 451.3 2619 447.7C2698.3 444 2777.7 434 2857 426.7C2936.3 419.3 3015.7 414.7 3095 425C3174.3 435.3 3253.7 460.7 3333 463C3412.3 465.3 3491.7 444.7 3571.2 440.3C3650.7 436 3730.3 448 3809.8 458.5C3889.3 469 3968.7 478 4048 482.5C4127.3 487 4206.7 487 4286 474.7C4365.3 462.3 4444.7 437.7 4524 437.3C4603.3 437 4682.7 461 4762 464.3C4841.3 467.7 4920.7 450.3 4960.3 441.7L5000 433L5000 601L4960.3 601C4920.7 601 4841.3 601 4762 601C4682.7 601 4603.3 601 4524 601C4444.7 601 4365.3 601 4286 601C4206.7 601 4127.3 601 4048 601C3968.7 601 3889.3 601 3809.8 601C3730.3 601 3650.7 601 3571.2 601C3491.7 601 3412.3 601 3333 601C3253.7 601 3174.3 601 3095 601C3015.7 601 2936.3 601 2857 601C2777.7 601 2698.3 601 2619 601C2539.7 601 2460.3 601 2381 601C2301.7 601 2222.3 601 2143 601C2063.7 601 1984.3 601 1905 601C1825.7 601 1746.3 601 1667 601C1587.7 601 1508.3 601 1428.8 601C1349.3 601 1269.7 601 1190.2 601C1110.7 601 1031.3 601 952 601C872.7 601 793.3 601 714 601C634.7 601 555.3 601 476 601C396.7 601 317.3 601 238 601C158.7 601 79.3 601 39.7 601L0 601Z" fill="#25c247"></path><path d="M0 479L39.7 483C79.3 487 158.7 495 238 498.7C317.3 502.3 396.7 501.7 476 494.7C555.3 487.7 634.7 474.3 714 473.8C793.3 473.3 872.7 485.7 952 494.3C1031.3 503 1110.7 508 1190.2 503.3C1269.7 498.7 1349.3 484.3 1428.8 481.3C1508.3 478.3 1587.7 486.7 1667 489.2C1746.3 491.7 1825.7 488.3 1905 485.5C1984.3 482.7 2063.7 480.3 2143 481.7C2222.3 483 2301.7 488 2381 489.2C2460.3 490.3 2539.7 487.7 2619 484.2C2698.3 480.7 2777.7 476.3 2857 474.5C2936.3 472.7 3015.7 473.3 3095 479.2C3174.3 485 3253.7 496 3333 492.8C3412.3 489.7 3491.7 472.3 3571.2 471C3650.7 469.7 3730.3 484.3 3809.8 485.2C3889.3 486 3968.7 473 4048 474.5C4127.3 476 4206.7 492 4286 490.8C4365.3 489.7 4444.7 471.3 4524 470.8C4603.3 470.3 4682.7 487.7 4762 487.5C4841.3 487.3 4920.7 469.7 4960.3 460.8L5000 452L5000 601L4960.3 601C4920.7 601 4841.3 601 4762 601C4682.7 601 4603.3 601 4524 601C4444.7 601 4365.3 601 4286 601C4206.7 601 4127.3 601 4048 601C3968.7 601 3889.3 601 3809.8 601C3730.3 601 3650.7 601 3571.2 601C3491.7 601 3412.3 601 3333 601C3253.7 601 3174.3 601 3095 601C3015.7 601 2936.3 601 2857 601C2777.7 601 2698.3 601 2619 601C2539.7 601 2460.3 601 2381 601C2301.7 601 2222.3 601 2143 601C2063.7 601 1984.3 601 1905 601C1825.7 601 1746.3 601 1667 601C1587.7 601 1508.3 601 1428.8 601C1349.3 601 1269.7 601 1190.2 601C1110.7 601 1031.3 601 952 601C872.7 601 793.3 601 714 601C634.7 601 555.3 601 476 601C396.7 601 317.3 601 238 601C158.7 601 79.3 601 39.7 601L0 601Z" fill="#20cd45"></path><path d="M0 521L39.7 521.2C79.3 521.3 158.7 521.7 238 523.2C317.3 524.7 396.7 527.3 476 527.7C555.3 528 634.7 526 714 520.5C793.3 515 872.7 506 952 506.7C1031.3 507.3 1110.7 517.7 1190.2 518.8C1269.7 520 1349.3 512 1428.8 508C1508.3 504 1587.7 504 1667 501.3C1746.3 498.7 1825.7 493.3 1905 497C1984.3 500.7 2063.7 513.3 2143 521.8C2222.3 530.3 2301.7 534.7 2381 531.5C2460.3 528.3 2539.7 517.7 2619 512.5C2698.3 507.3 2777.7 507.7 2857 513.3C2936.3 519 3015.7 530 3095 531.2C3174.3 532.3 3253.7 523.7 3333 519.8C3412.3 516 3491.7 517 3571.2 520.7C3650.7 524.3 3730.3 530.7 3809.8 534.7C3889.3 538.7 3968.7 540.3 4048 535.3C4127.3 530.3 4206.7 518.7 4286 510.5C4365.3 502.3 4444.7 497.7 4524 495.3C4603.3 493 4682.7 493 4762 498.3C4841.3 503.7 4920.7 514.3 4960.3 519.7L5000 525L5000 601L4960.3 601C4920.7 601 4841.3 601 4762 601C4682.7 601 4603.3 601 4524 601C4444.7 601 4365.3 601 4286 601C4206.7 601 4127.3 601 4048 601C3968.7 601 3889.3 601 3809.8 601C3730.3 601 3650.7 601 3571.2 601C3491.7 601 3412.3 601 3333 601C3253.7 601 3174.3 601 3095 601C3015.7 601 2936.3 601 2857 601C2777.7 601 2698.3 601 2619 601C2539.7 601 2460.3 601 2381 601C2301.7 601 2222.3 601 2143 601C2063.7 601 1984.3 601 1905 601C1825.7 601 1746.3 601 1667 601C1587.7 601 1508.3 601 1428.8 601C1349.3 601 1269.7 601 1190.2 601C1110.7 601 1031.3 601 952 601C872.7 601 793.3 601 714 601C634.7 601 555.3 601 476 601C396.7 601 317.3 601 238 601C158.7 601 79.3 601 39.7 601L0 601Z" fill="#1bd844"></path><path d="M0 563L39.7 562.8C79.3 562.7 158.7 562.3 238 560.8C317.3 559.3 396.7 556.7 476 555.7C555.3 554.7 634.7 555.3 714 558.7C793.3 562 872.7 568 952 566C1031.3 564 1110.7 554 1190.2 553.5C1269.7 553 1349.3 562 1428.8 564.8C1508.3 567.7 1587.7 564.3 1667 562.2C1746.3 560 1825.7 559 1905 554.2C1984.3 549.3 2063.7 540.7 2143 537.2C2222.3 533.7 2301.7 535.3 2381 540.8C2460.3 546.3 2539.7 555.7 2619 560.8C2698.3 566 2777.7 567 2857 567.5C2936.3 568 3015.7 568 3095 569C3174.3 570 3253.7 572 3333 571C3412.3 570 3491.7 566 3571.2 560.5C3650.7 555 3730.3 548 3809.8 546C3889.3 544 3968.7 547 4048 548.5C4127.3 550 4206.7 550 4286 548.3C4365.3 546.7 4444.7 543.3 4524 542.3C4603.3 541.3 4682.7 542.7 4762 545.7C4841.3 548.7 4920.7 553.3 4960.3 555.7L5000 558L5000 601L4960.3 601C4920.7 601 4841.3 601 4762 601C4682.7 601 4603.3 601 4524 601C4444.7 601 4365.3 601 4286 601C4206.7 601 4127.3 601 4048 601C3968.7 601 3889.3 601 3809.8 601C3730.3 601 3650.7 601 3571.2 601C3491.7 601 3412.3 601 3333 601C3253.7 601 3174.3 601 3095 601C3015.7 601 2936.3 601 2857 601C2777.7 601 2698.3 601 2619 601C2539.7 601 2460.3 601 2381 601C2301.7 601 2222.3 601 2143 601C2063.7 601 1984.3 601 1905 601C1825.7 601 1746.3 601 1667 601C1587.7 601 1508.3 601 1428.8 601C1349.3 601 1269.7 601 1190.2 601C1110.7 601 1031.3 601 952 601C872.7 601 793.3 601 714 601C634.7 601 555.3 601 476 601C396.7 601 317.3 601 238 601C158.7 601 79.3 601 39.7 601L0 601Z" fill="#14e441"></path></svg>