<svg id="visual" viewBox="0 0 5000 600" width="5000" height="600" xmlns="http://www.w3.org/2000/svg" xmlns:xlink="http://www.w3.org/1999/xlink" version="1.1"><rect x="0" y="0" width="5000" height="600" fill="#ffffff"></rect><path d="M0 352L39.7 335.5C79.3 319 158.7 286 238 272.3C317.3 258.7 396.7 264.3 476 261.2C555.3 258 634.7 246 714 256.8C793.3 267.7 872.7 301.3 952 308.2C1031.3 315 1110.7 295 1190.2 289.3C1269.7 283.7 1349.3 292.3 1428.8 292C1508.3 291.7 1587.7 282.3 1667 282.8C1746.3 283.3 1825.7 293.7 1905 287C1984.3 280.3 2063.7 256.7 2143 254.3C2222.3 252 2301.7 271 2381 271.8C2460.3 272.7 2539.7 255.3 2619 252.7C2698.3 250 2777.7 262 2857 264.5C2936.3 267 3015.7 260 3095 263.3C3174.3 266.7 3253.7 280.3 3333 285.5C3412.3 290.7 3491.7 287.3 3571.2 287.2C3650.7 287 3730.3 290 3809.8 286.8C3889.3 283.7 3968.7 274.3 4048 282.7C4127.3 291 4206.7 317 4286 315.8C4365.3 314.7 4444.7 286.3 4524 278.3C4603.3 270.3 4682.7 282.7 4762 294.7C4841.3 306.7 4920.7 318.3 4960.3 324.2L5000 330L5000 0L4960.3 0C4920.7 0 4841.3 0 4762 0C4682.7 0 4603.3 0 4524 0C4444.7 0 4365.3 0 4286 0C4206.7 0 4127.3 0 4048 0C3968.7 0 3889.3 0 3809.8 0C3730.3 0 3650.7 0 3571.2 0C3491.7 0 3412.3 0 3333 0C3253.7 0 3174.3 0 3095 0C3015.7 0 2936.3 0 2857 0C2777.7 0 2698.3 0 2619 0C2539.7 0 2460.3 0 2381 0C2301.7 0 2222.3 0 2143 0C2063.7 0 1984.3 0 1905 0C1825.7 0 1746.3 0 1667 0C1587.7 0 1508.3 0 1428.8 0C1349.3 0 1269.7 0 1190.2 0C1110.7 0 1031.3 0 952 0C872.7 0 793.3 0 714 0C634.7 0 555.3 0 476 0C396.7 0 317.3 0 238 0C158.7 0 79.3 0 39.7 0L0 0Z" fill="#329547"></path><path d="M0 264L39.7 256.2C79.3 248.3 158.7 232.7 238 236.8C317.3 241 396.7 265 476 265.2C555.3 265.3 634.7 241.7 714 233.5C793.3 225.3 872.7 232.7 952 242.8C1031.3 253 1110.7 266 1190.2 264.3C1269.7 262.7 1349.3 246.3 1428.8 250.7C1508.3 255 1587.7 280 1667 284.5C1746.3 289 1825.7 273 1905 258.5C1984.3 244 2063.7 231 2143 225C2222.3 219 2301.7 220 2381 229.5C2460.3 239 2539.7 257 2619 270.3C2698.3 283.7 2777.7 292.3 2857 283.2C2936.3 274 3015.7 247 3095 241.8C3174.3 236.7 3253.7 253.3 3333 251.8C3412.3 250.3 3491.7 230.7 3571.2 219.2C3650.7 207.7 3730.3 204.3 3809.8 206.5C3889.3 208.7 3968.7 216.3 4048 220.7C4127.3 225 4206.7 226 4286 226.2C4365.3 226.3 4444.7 225.7 4524 229.8C4603.3 234 4682.7 243 4762 253C4841.3 263 4920.7 274 4960.3 279.5L5000 285L5000 0L4960.3 0C4920.7 0 4841.3 0 4762 0C4682.7 0 4603.3 0 4524 0C4444.7 0 4365.3 0 4286 0C4206.7 0 4127.3 0 4048 0C3968.7 0 3889.3 0 3809.8 0C3730.3 0 3650.7 0 3571.2 0C3491.7 0 3412.3 0 3333 0C3253.7 0 3174.3 0 3095 0C3015.7 0 2936.3 0 2857 0C2777.7 0 2698.3 0 2619 0C2539.7 0 2460.3 0 2381 0C2301.7 0 2222.3 0 2143 0C2063.7 0 1984.3 0 1905 0C1825.7 0 1746.3 0 1667 0C1587.7 0 1508.3 0 1428.8 0C1349.3 0 1269.7 0 1190.2 0C1110.7 0 1031.3 0 952 0C872.7 0 793.3 0 714 0C634.7 0 555.3 0 476 0C396.7 0 317.3 0 238 0C158.7 0 79.3 0 39.7 0L0 0Z" fill="#30a048"></path><path d="M0 259L39.7 245C79.3 231 158.7 203 238 205.2C317.3 207.3 396.7 239.7 476 252C555.3 264.3 634.7 256.7 714 245.2C793.3 233.7 872.7 218.3 952 216.2C1031.3 214 1110.7 225 1190.2 222C1269.7 219 1349.3 202 1428.8 200C1508.3 198 1587.7 211 1667 220.3C1746.3 229.7 1825.7 235.3 1905 233.8C1984.3 232.3 2063.7 223.7 2143 214.5C2222.3 205.3 2301.7 195.7 2381 193.5C2460.3 191.3 2539.7 196.7 2619 197.5C2698.3 198.3 2777.7 194.7 2857 199.8C2936.3 205 3015.7 219 3095 219.8C3174.3 220.7 3253.7 208.3 3333 204.5C3412.3 200.7 3491.7 205.3 3571.2 202.8C3650.7 200.3 3730.3 190.7 3809.8 196.3C3889.3 202 3968.7 223 4048 235.8C4127.3 248.7 4206.7 253.3 4286 255.8C4365.3 258.3 4444.7 258.7 4524 244C4603.3 229.3 4682.7 199.7 4762 200.5C4841.3 201.3 4920.7 232.7 4960.3 248.3L5000 264L5000 0L4960.3 0C4920.7 0 4841.3 0 4762 0C4682.7 0 4603.3 0 4524 0C4444.7 0 4365.3 0 4286 0C4206.7 0 4127.3 0 4048 0C3968.7 0 3889.3 0 3809.8 0C3730.3 0 3650.7 0 3571.2 0C3491.7 0 3412.3 0 3333 0C3253.7 0 3174.3 0 3095 0C3015.7 0 2936.3 0 2857 0C2777.7 0 2698.3 0 2619 0C2539.7 0 2460.3 0 2381 0C2301.7 0 2222.3 0 2143 0C2063.7 0 1984.3 0 1905 0C1825.7 0 1746.3 0 1667 0C1587.7 0 1508.3 0 1428.8 0C1349.3 0 1269.7 0 1190.2 0C1110.7 0 1031.3 0 952 0C872.7 0 793.3 0 714 0C634.7 0 555.3 0 476 0C396.7 0 317.3 0 238 0C158.7 0 79.3 0 39.7 0L0 0Z" fill="#2dab48"></path><path d="M0 214L39.7 212.2C79.3 210.3 158.7 206.7 238 207C317.3 207.3 396.7 211.7 476 201.8C555.3 192 634.7 168 714 158.8C793.3 149.7 872.7 155.3 952 156.3C1031.3 157.3 1110.7 153.7 1190.2 157.7C1269.7 161.7 1349.3 173.3 1428.8 180C1508.3 186.7 1587.7 188.3 1667 192.5C1746.3 196.7 1825.7 203.3 1905 205.7C1984.3 208 2063.7 206 2143 200.8C2222.3 195.7 2301.7 187.3 2381 183C2460.3 178.7 2539.7 178.3 2619 175.8C2698.3 173.3 2777.7 168.7 2857 173.7C2936.3 178.7 3015.7 193.3 3095 199.2C3174.3 205 3253.7 202 3333 192.5C3412.3 183 3491.7 167 3571.2 165.5C3650.7 164 3730.3 177 3809.8 179.8C3889.3 182.7 3968.7 175.3 4048 171.7C4127.3 168 4206.7 168 4286 176C4365.3 184 4444.7 200 4524 197.5C4603.3 195 4682.7 174 4762 171.7C4841.3 169.3 4920.7 185.7 4960.3 193.8L5000 202L5000 0L4960.3 0C4920.7 0 4841.3 0 4762 0C4682.7 0 4603.3 0 4524 0C4444.7 0 4365.3 0 4286 0C4206.7 0 4127.3 0 4048 0C3968.7 0 3889.3 0 3809.8 0C3730.3 0 3650.7 0 3571.2 0C3491.7 0 3412.3 0 3333 0C3253.7 0 3174.3 0 3095 0C3015.7 0 2936.3 0 2857 0C2777.7 0 2698.3 0 2619 0C2539.7 0 2460.3 0 2381 0C2301.7 0 2222.3 0 2143 0C2063.7 0 1984.3 0 1905 0C1825.7 0 1746.3 0 1667 0C1587.7 0 1508.3 0 1428.8 0C1349.3 0 1269.7 0 1190.2 0C1110.7 0 1031.3 0 952 0C872.7 0 793.3 0 714 0C634.7 0 555.3 0 476 0C396.7 0 317.3 0 238 0C158.7 0 79.3 0 39.7 0L0 0Z" fill="#29b647"></path><path d="M0 137L39.7 141C79.3 145 158.7 153 238 152.8C317.3 152.7 396.7 144.3 476 136.2C555.3 128 634.7 120 714 124.2C793.3 128.3 872.7 144.7 952 148.8C1031.3 153 1110.7 145 1190.2 137.2C1269.7 129.3 1349.3 121.7 1428.8 128.3C1508.3 135 1587.7 156 1667 165.5C1746.3 175 1825.7 173 1905 175.2C1984.3 177.3 2063.7 183.7 2143 185.7C2222.3 187.7 2301.7 185.3 2381 182.2C2460.3 179 2539.7 175 2619 175.3C2698.3 175.7 2777.7 180.3 2857 178.8C2936.3 177.3 3015.7 169.7 3095 162C3174.3 154.3 3253.7 146.7 3333 147.3C3412.3 148 3491.7 157 3571.2 160.5C3650.7 164 3730.3 162 3809.8 155.5C3889.3 149 3968.7 138 4048 138.3C4127.3 138.7 4206.7 150.3 4286 158.2C4365.3 166 4444.7 170 4524 174.7C4603.3 179.3 4682.7 184.7 4762 174.3C4841.3 164 4920.7 138 4960.3 125L5000 112L5000 0L4960.3 0C4920.7 0 4841.3 0 4762 0C4682.7 0 4603.3 0 4524 0C4444.7 0 4365.3 0 4286 0C4206.7 0 4127.3 0 4048 0C3968.7 0 3889.3 0 3809.8 0C3730.3 0 3650.7 0 3571.2 0C3491.7 0 3412.3 0 3333 0C3253.7 0 3174.3 0 3095 0C3015.7 0 2936.3 0 2857 0C2777.7 0 2698.3 0 2619 0C2539.7 0 2460.3 0 2381 0C2301.7 0 2222.3 0 2143 0C2063.7 0 1984.3 0 1905 0C1825.7 0 1746.3 0 1667 0C1587.7 0 1508.3 0 1428.8 0C1349.3 0 1269.7 0 1190.2 0C1110.7 0 1031.3 0 952 0C872.7 0 793.3 0 714 0C634.7 0 555.3 0 476 0C396.7 0 317.3 0 238 0C158.7 0 79.3 0 39.7 0L0 0Z" fill="#25c247"></path><path d="M0 97L39.7 98.7C79.3 100.3 158.7 103.7 238 108.7C317.3 113.7 396.7 120.3 476 118C555.3 115.7 634.7 104.3 714 102.8C793.3 101.3 872.7 109.7 952 114.2C1031.3 118.7 1110.7 119.3 1190.2 121.7C1269.7 124 1349.3 128 1428.8 123.2C1508.3 118.3 1587.7 104.7 1667 106.8C1746.3 109 1825.7 127 1905 129.8C1984.3 132.7 2063.7 120.3 2143 118C2222.3 115.7 2301.7 123.3 2381 127.2C2460.3 131 2539.7 131 2619 131.7C2698.3 132.3 2777.7 133.7 2857 136.2C2936.3 138.7 3015.7 142.3 3095 135.7C3174.3 129 3253.7 112 3333 105.7C3412.3 99.3 3491.7 103.7 3571.2 106.8C3650.7 110 3730.3 112 3809.8 112.7C3889.3 113.3 3968.7 112.7 4048 117.3C4127.3 122 4206.7 132 4286 127.2C4365.3 122.3 4444.7 102.7 4524 98.8C4603.3 95 4682.7 107 4762 107.5C4841.3 108 4920.7 97 4960.3 91.5L5000 86L5000 0L4960.3 0C4920.7 0 4841.3 0 4762 0C4682.7 0 4603.3 0 4524 0C4444.7 0 4365.3 0 4286 0C4206.7 0 4127.3 0 4048 0C3968.7 0 3889.3 0 3809.8 0C3730.3 0 3650.7 0 3571.2 0C3491.7 0 3412.3 0 3333 0C3253.7 0 3174.3 0 3095 0C3015.7 0 2936.3 0 2857 0C2777.7 0 2698.3 0 2619 0C2539.7 0 2460.3 0 2381 0C2301.7 0 2222.3 0 2143 0C2063.7 0 1984.3 0 1905 0C1825.7 0 1746.3 0 1667 0C1587.7 0 1508.3 0 1428.8 0C1349.3 0 1269.7 0 1190.2 0C1110.7 0 1031.3 0 952 0C872.7 0 793.3 0 714 0C634.7 0 555.3 0 476 0C396.7 0 317.3 0 238 0C158.7 0 79.3 0 39.7 0L0 0Z" fill="#20cd45"></path><path d="M0 84L39.7 84.2C79.3 84.3 158.7 84.7 238 85.8C317.3 87 396.7 89 476 85.3C555.3 81.7 634.7 72.3 714 72.2C793.3 72 872.7 81 952 82C1031.3 83 1110.7 76 1190.2 71.2C1269.7 66.3 1349.3 63.7 1428.8 67.7C1508.3 71.7 1587.7 82.3 1667 87.7C1746.3 93 1825.7 93 1905 89.3C1984.3 85.7 2063.7 78.3 2143 71.5C2222.3 64.7 2301.7 58.3 2381 57.8C2460.3 57.3 2539.7 62.7 2619 69.3C2698.3 76 2777.7 84 2857 88.8C2936.3 93.7 3015.7 95.3 3095 90.8C3174.3 86.3 3253.7 75.7 3333 77.2C3412.3 78.7 3491.7 92.3 3571.2 95.3C3650.7 98.3 3730.3 90.7 3809.8 86.2C3889.3 81.7 3968.7 80.3 4048 81.2C4127.3 82 4206.7 85 4286 84.5C4365.3 84 4444.7 80 4524 79C4603.3 78 4682.7 80 4762 83.2C4841.3 86.3 4920.7 90.7 4960.3 92.8L5000 95L5000 0L4960.3 0C4920.7 0 4841.3 0 4762 0C4682.7 0 4603.3 0 4524 0C4444.7 0 4365.3 0 4286 0C4206.7 0 4127.3 0 4048 0C3968.7 0 3889.3 0 3809.8 0C3730.3 0 3650.7 0 3571.2 0C3491.7 0 3412.3 0 3333 0C3253.7 0 3174.3 0 3095 0C3015.7 0 2936.3 0 2857 0C2777.7 0 2698.3 0 2619 0C2539.7 0 2460.3 0 2381 0C2301.7 0 2222.3 0 2143 0C2063.7 0 1984.3 0 1905 0C1825.7 0 1746.3 0 1667 0C1587.7 0 1508.3 0 1428.8 0C1349.3 0 1269.7 0 1190.2 0C1110.7 0 1031.3 0 952 0C872.7 0 793.3 0 714 0C634.7 0 555.3 0 476 0C396.7 0 317.3 0 238 0C158.7 0 79.3 0 39.7 0L0 0Z" fill="#1bd844"></path><path d="M0 46L39.7 44.5C79.3 43 158.7 40 238 39.2C317.3 38.3 396.7 39.7 476 41.8C555.3 44 634.7 47 714 47.8C793.3 48.7 872.7 47.3 952 48.3C1031.3 49.3 1110.7 52.7 1190.2 48.8C1269.7 45 1349.3 34 1428.8 33.3C1508.3 32.7 1587.7 42.3 1667 42.7C1746.3 43 1825.7 34 1905 33C1984.3 32 2063.7 39 2143 40.3C2222.3 41.7 2301.7 37.3 2381 40.5C2460.3 43.7 2539.7 54.3 2619 57.5C2698.3 60.7 2777.7 56.3 2857 51.8C2936.3 47.3 3015.7 42.7 3095 38.7C3174.3 34.7 3253.7 31.3 3333 36.2C3412.3 41 3491.7 54 3571.2 53.5C3650.7 53 3730.3 39 3809.8 35.7C3889.3 32.3 3968.7 39.7 4048 41.5C4127.3 43.3 4206.7 39.7 4286 37.5C4365.3 35.3 4444.7 34.7 4524 37.7C4603.3 40.7 4682.7 47.3 4762 49.3C4841.3 51.3 4920.7 48.7 4960.3 47.3L5000 46L5000 0L4960.3 0C4920.7 0 4841.3 0 4762 0C4682.7 0 4603.3 0 4524 0C4444.7 0 4365.3 0 4286 0C4206.7 0 4127.3 0 4048 0C3968.7 0 3889.3 0 3809.8 0C3730.3 0 3650.7 0 3571.2 0C3491.7 0 3412.3 0 3333 0C3253.7 0 3174.3 0 3095 0C3015.7 0 2936.3 0 2857 0C2777.7 0 2698.3 0 2619 0C2539.7 0 2460.3 0 2381 0C2301.7 0 2222.3 0 2143 0C2063.7 0 1984.3 0 1905 0C1825.7 0 1746.3 0 1667 0C1587.7 0 1508.3 0 1428.8 0C1349.3 0 1269.7 0 1190.2 0C1110.7 0 1031.3 0 952 0C872.7 0 793.3 0 714 0C634.7 0 555.3 0 476 0C396.7 0 317.3 0 238 0C158.7 0 79.3 0 39.7 0L0 0Z" fill="#14e441"></path></svg>